<svg width="38" height="38" viewBox="0 0 38 38" fill="none" xmlns="http://www.w3.org/2000/svg">
<path d="M30.3003 31.7027C28.9804 29.9552 27.2729 28.538 25.3121 27.5629C23.3513 26.5877 21.1908 26.0812 19.0009 26.0832C16.8111 26.0812 14.6506 26.5877 12.6898 27.5629C10.729 28.538 9.02146 29.9552 7.70161 31.7027M30.2984 31.7027C32.8739 29.4118 34.6922 26.3921 35.5121 23.0441C36.332 19.696 36.1148 16.1778 34.8893 12.9561C33.6638 9.73432 31.4879 6.96121 28.6501 5.00452C25.8124 3.04783 22.4469 2 19 2C15.5531 2 12.1876 3.04783 9.34986 5.00452C6.51213 6.96121 4.33624 9.73432 3.11073 12.9561C1.88523 16.1778 1.66803 19.696 2.48794 23.0441C3.30784 26.3921 5.12611 29.4118 7.70161 31.7027M30.2984 31.7027C27.1893 34.476 23.1671 36.0059 19.0009 36C14.8341 36.0064 10.8112 34.4764 7.70161 31.7027M24.6676 14.7496C24.6676 16.2526 24.0706 17.6939 23.0079 18.7566C21.9452 19.8194 20.5038 20.4164 19.0009 20.4164C17.4981 20.4164 16.0567 19.8194 14.994 18.7566C13.9313 17.6939 13.3343 16.2526 13.3343 14.7496C13.3343 13.2467 13.9313 11.8054 14.994 10.7426C16.0567 9.67992 17.4981 9.08289 19.0009 9.08289C20.5038 9.08289 21.9452 9.67992 23.0079 10.7426C24.0706 11.8054 24.6676 13.2467 24.6676 14.7496V14.7496Z" stroke="#E42958" stroke-width="3" stroke-linecap="round" stroke-linejoin="round"/>
</svg>
