<svg width="38" height="38" viewBox="0 0 38 38" fill="none" xmlns="http://www.w3.org/2000/svg">
<path d="M19 7.66667V19H27.5M36 19C36 21.2325 35.5603 23.4431 34.706 25.5056C33.8516 27.5682 32.5994 29.4422 31.0208 31.0208C29.4422 32.5994 27.5682 33.8516 25.5056 34.706C23.4431 35.5603 21.2325 36 19 36C16.7675 36 14.5569 35.5603 12.4944 34.706C10.4318 33.8516 8.55778 32.5994 6.97918 31.0208C5.40059 29.4422 4.14838 27.5682 3.29405 25.5056C2.43972 23.4431 2 21.2325 2 19C2 14.4913 3.79107 10.1673 6.97918 6.97918C10.1673 3.79107 14.4913 2 19 2C23.5087 2 27.8327 3.79107 31.0208 6.97918C34.2089 10.1673 36 14.4913 36 19Z" stroke="#E42958" stroke-width="3" stroke-linecap="round" stroke-linejoin="round"/>
</svg>
