<svg width="38" height="44" viewBox="0 0 38 44" fill="none" xmlns="http://www.w3.org/2000/svg">
<path d="M12.8182 22H20.5455M12.8182 28.1538H20.5455M12.8182 34.3077H20.5455M26.7273 35.8462H31.3636C32.5933 35.8462 33.7726 35.3599 34.642 34.4943C35.5115 33.6288 36 32.4548 36 31.2308V9.91385C36 7.58564 34.2588 5.61026 31.9282 5.41744C31.1576 5.35381 30.3861 5.29911 29.6142 5.25333M17.6606 5.25333C17.5267 5.6841 17.4545 6.14154 17.4545 6.61538C17.4545 7.46462 18.1469 8.15385 19 8.15385H28.2727C28.6826 8.15385 29.0757 7.99176 29.3655 7.70324C29.6554 7.41472 29.8182 7.02341 29.8182 6.61538C29.8183 6.15366 29.7489 5.69453 29.6121 5.25333M17.6606 5.25333C17.9533 4.31118 18.5413 3.48704 19.3385 2.90162C20.1357 2.31619 21.1003 2.00023 22.0909 2H25.1818C27.2672 2 29.029 3.37026 29.6121 5.25333M17.6606 5.25333C16.8858 5.30051 16.1152 5.3559 15.3445 5.41744C13.0139 5.61026 11.2727 7.58564 11.2727 9.91385V14.3077M11.2727 14.3077H4.31818C3.03855 14.3077 2 15.3415 2 16.6154V39.6923C2 40.9662 3.03855 42 4.31818 42H24.4091C25.6887 42 26.7273 40.9662 26.7273 39.6923V16.6154C26.7273 15.3415 25.6887 14.3077 24.4091 14.3077H11.2727ZM8.18182 22H8.1983V22.0164H8.18182V22ZM8.18182 28.1538H8.1983V28.1703H8.18182V28.1538ZM8.18182 34.3077H8.1983V34.3241H8.18182V34.3077Z" stroke="#E42958" stroke-width="3" stroke-linecap="round" stroke-linejoin="round"/>
</svg>
