<svg width="46" height="39" viewBox="0 0 46 39" fill="none" xmlns="http://www.w3.org/2000/svg">
<path d="M2 32.426C13.4921 32.4168 24.9342 33.9254 36.0243 36.912C37.5902 37.3348 39.1538 36.1818 39.1538 34.5719V32.426M5.23077 2V3.60137C5.23077 4.02608 5.06058 4.4334 4.75763 4.73371C4.45469 5.03403 4.04381 5.20274 3.61538 5.20274H2M2 5.20274V4.40206C2 3.07612 3.08554 2 4.42308 2H40.7692M2 5.20274V24.4192M40.7692 2V3.60137C40.7692 4.48533 41.4929 5.20274 42.3846 5.20274H44M40.7692 2H41.5769C42.9145 2 44 3.07612 44 4.40206V25.2199C44 26.5458 42.9145 27.6219 41.5769 27.6219H40.7692M44 24.4192H42.3846C41.9562 24.4192 41.5453 24.5879 41.2424 24.8882C40.9394 25.1885 40.7692 25.5959 40.7692 26.0206V27.6219M40.7692 27.6219H5.23077M5.23077 27.6219H4.42308C3.78044 27.6219 3.16412 27.3689 2.7097 26.9184C2.25529 26.4679 2 25.8569 2 25.2199V24.4192M5.23077 27.6219V26.0206C5.23077 25.5959 5.06058 25.1885 4.75763 24.8882C4.45469 24.5879 4.04381 24.4192 3.61538 24.4192H2M29.4615 14.811C29.4615 16.5098 28.7808 18.1391 27.569 19.3403C26.3572 20.5416 24.7137 21.2164 23 21.2164C21.2863 21.2164 19.6428 20.5416 18.431 19.3403C17.2192 18.1391 16.5385 16.5098 16.5385 14.811C16.5385 13.1121 17.2192 11.4829 18.431 10.2816C19.6428 9.08034 21.2863 8.40548 23 8.40548C24.7137 8.40548 26.3572 9.08034 27.569 10.2816C28.7808 11.4829 29.4615 13.1121 29.4615 14.811V14.811ZM35.9231 14.811H35.9403V14.828H35.9231V14.811ZM10.0769 14.811H10.0942V14.828H10.0769V14.811Z" stroke="#E42958" stroke-width="4" stroke-linecap="round" stroke-linejoin="round"/>
</svg>
