<svg width="32" height="40" viewBox="0 0 32 40" fill="none" xmlns="http://www.w3.org/2000/svg">
<path d="M9 15.8479H18.1C19.3996 15.8479 20.6459 16.3584 21.5648 17.2672C22.4838 18.1759 23 19.4085 23 20.6937C23 21.9788 22.4838 23.2114 21.5648 24.1201C20.6459 25.0289 19.3996 25.5394 18.1 25.5394H16M9 15.8479L13.2 11.6944M9 15.8479L13.2 20.0014M30 6.63076V38L23 35.231L16 38L9 35.231L2 38V6.63076C2 4.58538 3.50453 2.83352 5.55973 2.59723C12.4966 1.80092 19.5034 1.80092 26.4403 2.59723C28.4936 2.83352 30 4.58538 30 6.63076Z" stroke="#E42958" stroke-width="3" stroke-linecap="round" stroke-linejoin="round"/>
</svg>
